<svg width="52" height="52" viewBox="0 0 52 52" fill="none" xmlns="http://www.w3.org/2000/svg">
<path d="M10.8336 47.6667C9.10974 47.6667 7.45644 46.9819 6.23744 45.7629C5.01844 44.5439 4.33364 42.8906 4.33364 41.1668L4.33364 10.8335C4.33364 9.10946 5.01844 7.45616 6.23744 6.23726C7.45644 5.01826 9.10974 4.33346 10.8336 4.33346L41.1669 4.33346C42.8909 4.33346 44.5442 5.01826 45.7632 6.23726C46.9822 7.45616 47.667 9.10946 47.667 10.8335L47.667 41.1668C47.667 42.8906 46.9822 44.5439 45.7632 45.7629C44.5442 46.9819 42.8909 47.6667 41.1669 47.6667L10.8336 47.6667ZM24.4684 36.1986C24.8748 36.6048 25.4258 36.833 26.0003 36.833C26.5748 36.833 27.1258 36.6048 27.5321 36.1986L36.1988 27.532L36.3786 27.3283L36.5173 27.129L36.6299 26.9166L36.7253 26.6783L36.7903 26.4356L36.8271 26.1626L36.8336 26.0001L36.8249 25.8051L36.8098 25.6795L36.7556 25.4238L36.6798 25.1963L36.5628 24.9515L36.4089 24.711C36.3439 24.6243 36.2768 24.5441 36.1988 24.4683L27.5321 15.8016L27.3284 15.6218C26.9116 15.2984 26.391 15.1383 25.8645 15.1714C25.3379 15.2045 24.8415 15.4286 24.4684 15.8016L24.2886 16.0053C23.9652 16.4222 23.8051 16.9427 23.8382 17.4693C23.8713 17.9958 24.0954 18.4922 24.4684 18.8653L29.4344 23.8335H17.3336L17.0801 23.8486C16.5317 23.9138 16.029 24.186 15.6745 24.6095C15.3201 25.033 15.1407 25.5758 15.1731 26.1271C15.2054 26.6784 15.4471 27.1965 15.8486 27.5756C16.2502 27.9547 16.7814 28.1662 17.3336 28.1668H29.4344L24.4684 33.135L24.2886 33.3386C23.9652 33.7555 23.8051 34.276 23.8382 34.8026C23.8713 35.3292 24.0954 35.8255 24.4684 36.1986Z" fill="#C21717"/>
</svg>
