<svg width="52" height="52" viewBox="0 0 52 52" fill="none" xmlns="http://www.w3.org/2000/svg">
<path d="M41.1666 4.33331C42.8905 4.33331 44.5438 5.01813 45.7628 6.23712C46.9818 7.45611 47.6666 9.10941 47.6666 10.8333V41.1666C47.6666 42.8906 46.9818 44.5439 45.7628 45.7628C44.5438 46.9818 42.8905 47.6666 41.1666 47.6666H10.8333C9.10934 47.6666 7.45604 46.9818 6.23706 45.7628C5.01807 44.5439 4.33325 42.8906 4.33325 41.1666V10.8333C4.33325 9.10941 5.01807 7.45611 6.23706 6.23712C7.45604 5.01813 9.10934 4.33331 10.8333 4.33331H41.1666ZM27.5318 15.8015C27.1254 15.3953 26.5744 15.1671 25.9999 15.1671C25.4254 15.1671 24.8744 15.3953 24.4681 15.8015L15.8014 24.4681L15.6216 24.6718L15.4829 24.8711L15.3703 25.0835L15.2749 25.3218L15.2099 25.5645L15.1731 25.8375L15.1666 26L15.1753 26.195L15.1904 26.3206L15.2446 26.5763L15.3204 26.8038L15.4374 27.0486L15.5913 27.2891C15.6563 27.3758 15.7234 27.456 15.8014 27.5318L24.4681 36.1985L24.6718 36.3783C25.0886 36.7017 25.6092 36.8618 26.1357 36.8287C26.6623 36.7956 27.1587 36.5715 27.5318 36.1985L27.7116 35.9948C28.035 35.5779 28.1951 35.0574 28.162 34.5308C28.1289 34.0043 27.9048 33.5079 27.5318 33.1348L22.5658 28.1666H34.6666L34.9201 28.1515C35.4685 28.0863 35.9712 27.8141 36.3257 27.3906C36.6801 26.9671 36.8595 26.4243 36.8271 25.873C36.7948 25.3217 36.5531 24.8036 36.1516 24.4245C35.75 24.0454 35.2188 23.8339 34.6666 23.8333H22.5658L27.5318 18.8651L27.7116 18.6615C28.035 18.2446 28.1951 17.7241 28.162 17.1975C28.1289 16.6709 27.9048 16.1746 27.5318 15.8015Z" fill="#C21717"/>
</svg>
