<svg width="32" height="32" viewBox="0 0 32 32" fill="none" xmlns="http://www.w3.org/2000/svg">
<g clip-path="url(#clip0_141_526)">
<path d="M12 14.6667C12 15.7276 12.4214 16.745 13.1716 17.4951C13.9217 18.2453 14.9391 18.6667 16 18.6667C17.0609 18.6667 18.0783 18.2453 18.8284 17.4951C19.5786 16.745 20 15.7276 20 14.6667C20 13.6058 19.5786 12.5884 18.8284 11.8383C18.0783 11.0881 17.0609 10.6667 16 10.6667C14.9391 10.6667 13.9217 11.0881 13.1716 11.8383C12.4214 12.5884 12 13.6058 12 14.6667Z" stroke="#FFC8C8" stroke-width="1.33333" stroke-linecap="round" stroke-linejoin="round"/>
<path d="M23.5427 22.2093L17.8853 27.8666C17.3853 28.3662 16.7074 28.6467 16.0007 28.6467C15.2939 28.6467 14.616 28.3662 14.116 27.8666L8.45732 22.2093C6.96561 20.7175 5.94977 18.8169 5.53823 16.7478C5.1267 14.6787 5.33797 12.534 6.14532 10.5849C6.95267 8.6359 8.31985 6.97003 10.074 5.79799C11.8281 4.62594 13.8903 4.00037 16 4.00037C18.1096 4.00037 20.1719 4.62594 21.926 5.79799C23.6801 6.97003 25.0473 8.6359 25.8546 10.5849C26.662 12.534 26.8733 14.6787 26.4617 16.7478C26.0502 18.8169 25.0344 20.7175 23.5427 22.2093Z" stroke="#FFC8C8" stroke-width="1.33333" stroke-linecap="round" stroke-linejoin="round"/>
</g>
<defs>
<clipPath id="clip0_141_526">
<rect width="32" height="32" fill="white"/>
</clipPath>
</defs>
</svg>
