<?xml version="1.0" encoding="UTF-8"?>
<svg version="1.1" xmlns="http://www.w3.org/2000/svg" width="441" height="499">
<path d="M0 0 C1.22485812 2.44971624 1.16722808 4.14234461 1.1875 6.875 C1.20167969 7.73867187 1.21585938 8.60234375 1.23046875 9.4921875 C0.98452202 12.1684214 0.27201002 13.66404108 -1 16 C-1.3721042 17.32303717 -1.70630173 18.65737935 -2 20 C-2.46666982 22.13334776 -2.93218414 23.87158347 -3.95458984 25.80761719 C-12.64386559 44.03033932 -12.20938775 68.46420179 -5.8984375 87.28515625 C-1.62913034 97.95842416 4.31405078 107.6873629 10.48510742 117.34277344 C12.89789565 121.13625738 15.06594137 124.93220116 17 129 C17.350625 129.72703125 17.70125 130.4540625 18.0625 131.203125 C22.93739941 141.84665538 24.50235969 151.00450013 24.4375 162.75 C24.45748047 164.0184375 24.47746094 165.286875 24.49804688 166.59375 C24.48623052 189.75381055 12.62192058 211.18083012 0 230 C-0.95132813 231.43472656 -0.95132813 231.43472656 -1.921875 232.8984375 C-5.49440051 238.16865075 -5.49440051 238.16865075 -7 240 C-7.66 240 -8.32 240 -9 240 C-9.20625 240.825 -9.4125 241.65 -9.625 242.5 C-11.11565274 246.2943888 -13.030444 248.91790278 -15.5625 252.0703125 C-16.97973014 253.97278991 -18.00666826 255.850965 -19 258 C-19.66 258 -20.32 258 -21 258 C-21.268125 258.53625 -21.53625 259.0725 -21.8125 259.625 C-23.20833333 262.41666667 -24.60416667 265.20833333 -26 268 C-26.66 268 -27.32 268 -28 268 C-28.11472656 268.57234375 -28.22945312 269.1446875 -28.34765625 269.734375 C-29.06182356 272.21471656 -30.07307872 274.06368697 -31.4375 276.25 C-31.86933594 276.95640625 -32.30117187 277.6628125 -32.74609375 278.390625 C-33.15988281 278.92171875 -33.57367188 279.4528125 -34 280 C-34.66 280 -35.32 280 -36 280 C-36.144375 280.61875 -36.28875 281.2375 -36.4375 281.875 C-37 284 -37 284 -38 286 C-38.66 286 -39.32 286 -40 286 C-40.28875 286.763125 -40.5775 287.52625 -40.875 288.3125 C-42 291 -42 291 -44 294 C-44.66 294 -45.32 294 -46 294 C-46 294.66 -46 295.32 -46 296 C-46.66 296 -47.32 296 -48 296 C-48.3403125 296.804375 -48.3403125 296.804375 -48.6875 297.625 C-50.42057923 300.76104813 -52.59894843 303.36658861 -55 306 C-55.70125 306.78375 -56.4025 307.5675 -57.125 308.375 C-61.57106304 310.88799215 -66.0057985 310.31487085 -71 310 C-72.85505426 306.28989147 -72.57422114 301.91940477 -71.40429688 298.00878906 C-70.58463943 296.00999296 -69.69159304 294.06924176 -68.75 292.125 C-68.10305086 290.7218681 -67.45721423 289.31822271 -66.8125 287.9140625 C-66.49925781 287.2427832 -66.18601563 286.57150391 -65.86328125 285.87988281 C-64.07568956 281.98721992 -62.5462992 277.99279137 -61 274 C-60.73574219 273.35289062 -60.47148437 272.70578125 -60.19921875 272.0390625 C-57.18714609 264.47026454 -54.42390326 256.21220249 -55 248 C-57.2758823 243.77518254 -57.2758823 243.77518254 -61 241 C-64.52894948 241.08743691 -64.52894948 241.08743691 -68 242 C-68.70005769 243.31610845 -69.3626832 244.65239119 -70 246 C-71.8046875 247.74609375 -71.8046875 247.74609375 -73.875 249.4375 C-77.00301978 252.06684996 -79.4674373 254.7855935 -82 258 C-82.66 258 -83.32 258 -84 258 C-84 258.66 -84 259.32 -84 260 C-84.66 260 -85.32 260 -86 260 C-86 260.66 -86 261.32 -86 262 C-86.66 262 -87.32 262 -88 262 C-88 262.66 -88 263.32 -88 264 C-88.66 264 -89.32 264 -90 264 C-90 264.99 -90 265.98 -90 267 C-91.11418958 268.18171622 -92.24121362 269.35395897 -93.4296875 270.4609375 C-95.96356703 272.94439157 -98.17895017 275.70246573 -100.44921875 278.42578125 C-100.96097656 278.94527344 -101.47273437 279.46476562 -102 280 C-102.66 280 -103.32 280 -104 280 C-104.309375 280.61875 -104.61875 281.2375 -104.9375 281.875 C-105.625 283.25 -106.3125 284.625 -107 286 C-107.66 286 -108.32 286 -109 286 C-109.2475 286.61875 -109.495 287.2375 -109.75 287.875 C-111.23740369 290.40358627 -112.43678009 290.71839004 -115 292 C-116.26804566 294.0335948 -116.26804566 294.0335948 -117 296 C-117.66 296 -118.32 296 -119 296 C-119 296.66 -119 297.32 -119 298 C-119.66 298 -120.32 298 -121 298 C-121 298.66 -121 299.32 -121 300 C-121.66 300 -122.32 300 -123 300 C-123 300.66 -123 301.32 -123 302 C-123.66 302 -124.32 302 -125 302 C-125.24878906 302.59296875 -125.49757813 303.1859375 -125.75390625 303.796875 C-127.17974226 306.31778882 -128.61616713 307.53817911 -130.9375 309.25 C-131.62714844 309.77078125 -132.31679687 310.2915625 -133.02734375 310.828125 C-135 312 -135 312 -138 312 C-138 312.66 -138 313.32 -138 314 C-141.35197843 316.23465229 -142.57791246 316.27108649 -146.5 316.25 C-147.4590625 316.25515625 -148.418125 316.2603125 -149.40625 316.265625 C-152 316 -152 316 -155 314 C-155 313.34 -155 312.68 -155 312 C-155.66 312 -156.32 312 -157 312 C-158.60140495 308.7971901 -158.35973947 305.48379279 -158 302 C-156.47634567 297.71925688 -154.60303465 293.73478885 -152 290 C-151.34 290 -150.68 290 -150 290 C-149.62875 289.195625 -149.62875 289.195625 -149.25 288.375 C-147.69347463 285.4176018 -145.96564327 282.70275949 -144 280 C-143.34 280 -142.68 280 -142 280 C-142 279.34 -142 278.68 -142 278 C-141.34 278 -140.68 278 -140 278 C-139.731875 277.236875 -139.46375 276.47375 -139.1875 275.6875 C-138.04865495 273.11011382 -137.18583329 271.73045136 -135 270 C-134.34 270 -133.68 270 -133 270 C-132.67 268.68 -132.34 267.36 -132 266 C-131.34 266 -130.68 266 -130 266 C-129.7525 265.278125 -129.505 264.55625 -129.25 263.8125 C-127.87730408 260.72393418 -126.27646704 258.48988582 -124 256 C-123.34 256 -122.68 256 -122 256 C-122 255.34 -122 254.68 -122 254 C-121.34 254 -120.68 254 -120 254 C-119.7525 253.29488281 -119.505 252.58976563 -119.25 251.86328125 C-117.83896341 248.63112557 -116.0749274 246.03671098 -114 243.1875 C-113.29875 242.21167969 -112.5975 241.23585938 -111.875 240.23046875 C-110.946875 239.12638672 -110.946875 239.12638672 -110 238 C-109.34 238 -108.68 238 -108 238 C-107.01 235.03 -107.01 235.03 -106 232 C-105.34 232 -104.68 232 -104 232 C-103.731875 231.0925 -103.46375 230.185 -103.1875 229.25 C-102 226 -102 226 -100.4765625 224.11328125 C-98.73244902 221.6170765 -98.45560295 219.95025006 -98.1875 216.9375 C-98.09855469 216.08027344 -98.00960937 215.22304688 -97.91796875 214.33984375 C-97.80460303 211.72412104 -97.80460303 211.72412104 -100 209 C-102.56287112 208.59681752 -102.56287112 208.59681752 -105.4375 208.75 C-106.88962891 208.77320313 -106.88962891 208.77320313 -108.37109375 208.796875 C-111.10857454 208.90163323 -111.10857454 208.90163323 -114 210 C-115.89470816 210.0685495 -117.7916834 210.08480372 -119.6875 210.0625 C-120.68136719 210.05347656 -121.67523438 210.04445313 -122.69921875 210.03515625 C-123.83810547 210.01775391 -123.83810547 210.01775391 -125 210 C-125 210.66 -125 211.32 -125 212 C-126.794375 212.37125 -126.794375 212.37125 -128.625 212.75 C-134.01868988 213.9362704 -139.28323933 215.50913653 -144.5703125 217.09765625 C-148 218 -148 218 -151.4296875 218.43359375 C-154.89063794 218.98265044 -157.64308746 219.92968645 -160.87109375 221.2109375 C-165.43648381 222.90306372 -170.21443289 223.93135971 -174.93359375 225.10546875 C-179.45343737 226.25557482 -183.7742327 227.59806428 -188.11962891 229.29052734 C-201.75938023 234.43686821 -221.95962708 240.61321295 -236.4375 235.875 C-239.73129958 233.46490275 -240.72597676 231.8928488 -242 228 C-242.22538704 224.64924593 -242.17885792 221.35192995 -242 218 C-241.34 218 -240.68 218 -240 218 C-239.92136719 217.40058594 -239.84273437 216.80117188 -239.76171875 216.18359375 C-238.19735034 211.69907096 -233.03523204 209.98696869 -229 208 C-222.14568741 205.17627077 -215.26401819 202.88025584 -207.98828125 201.45703125 C-205.33648213 200.84748214 -202.88836133 199.79261326 -200.3671875 198.78515625 C-197.26719204 197.75693994 -194.13816423 197.1462229 -190.9375 196.5 C-185.88359287 195.46980122 -181.63216963 194.21958128 -177 192 C-172.77758932 190.43954388 -168.56076795 189.43493595 -164.16796875 188.5078125 C-161.80143046 187.99502986 -161.80143046 187.99502986 -158.8125 186.875 C-155.73931081 185.9188967 -153.19937309 185.8476489 -150 186 C-150 185.34 -150 184.68 -150 184 C-149.03900391 183.72736328 -149.03900391 183.72736328 -148.05859375 183.44921875 C-142.86132984 181.93883654 -137.94010658 180.23702939 -133 178 C-128.99216111 176.20338257 -125.35430628 174.65974338 -121 174 C-121 173.34 -121 172.68 -121 172 C-120.030625 171.7525 -119.06125 171.505 -118.0625 171.25 C-117.051875 170.8375 -116.04125 170.425 -115 170 C-114.03122943 167.96756452 -114.03122943 167.96756452 -114 166 C-113.34 166 -112.68 166 -112 166 C-111.814375 164.7625 -111.62875 163.525 -111.4375 162.25 C-111.33308594 161.55390625 -111.22867188 160.8578125 -111.12109375 160.140625 C-110.99240598 157.86575729 -111.4059874 156.18404633 -112 154 C-118.44076336 152.52578866 -124.76641996 151.80291098 -131.3515625 151.54296875 C-132.1004071 151.51204132 -132.84925171 151.48111389 -133.62078857 151.44924927 C-136.72716911 151.32591384 -139.83332161 151.20995008 -142.94091797 151.12182617 C-158.53373544 150.65447102 -174.76330539 147.90557027 -188 139 C-188.33 138.01 -188.66 137.02 -189 136 C-189.66 136 -190.32 136 -191 136 C-191.33 134.68 -191.66 133.36 -192 132 C-192.66 132 -193.32 132 -194 132 C-196.29186474 128.36211946 -196.26795835 125.2381715 -196.25 121 C-196.25773437 119.1746875 -196.25773437 119.1746875 -196.265625 117.3125 C-195.87255139 112.41064087 -195.87255139 112.41064087 -194 110 C-187.33481572 105.6849674 -180.52942708 106.70890441 -173 108 C-167.58247223 109.22815782 -162.27495125 110.84680088 -156.95458984 112.43505859 C-150.40030843 114.32946369 -143.81855031 115.22767569 -137.03125 115.75390625 C-135 116 -135 116 -133 117 C-131.64983345 117.10897278 -130.2946221 117.15893516 -128.94018555 117.17700195 C-127.6819825 117.19625481 -127.6819825 117.19625481 -126.39836121 117.21589661 C-125.03134819 117.22697701 -125.03134819 117.22697701 -123.63671875 117.23828125 C-122.69375443 117.246353 -121.7507901 117.25442474 -120.7792511 117.26274109 C-118.77432091 117.2765967 -116.76936698 117.28731222 -114.7644043 117.29516602 C-111.73764045 117.31221753 -108.71201579 117.35606943 -105.68554688 117.40039062 C-87.81267608 117.58144878 -87.81267608 117.58144878 -72 110 C-71.34 110 -70.68 110 -70 110 C-70 109.34 -70 108.68 -70 108 C-68.125 105.875 -68.125 105.875 -66 104 C-65.34 104 -64.68 104 -64 104 C-62.2264196 96.16939077 -61.33404934 88.3588584 -60.5625 80.375 C-58.327709 58.68090027 -54.4366288 39.24911364 -44 20 C-43.34 20 -42.68 20 -42 20 C-41.7525 19.38125 -41.505 18.7625 -41.25 18.125 C-39.76259631 15.59641373 -38.56321991 15.28160996 -36 14 C-34.73195434 11.9664052 -34.73195434 11.9664052 -34 10 C-33.34 10 -32.68 10 -32 10 C-32 9.34 -32 8.68 -32 8 C-29.8125 6.5625 -29.8125 6.5625 -27 5 C-26.24589844 4.52046875 -25.49179688 4.0409375 -24.71484375 3.546875 C-16.67632641 -1.03334495 -8.80395762 -3.2281178 0 0 Z " fill="#FD8954" transform="translate(251,159)"/>
<path d="M0 0 C0.94746094 -0.03738281 1.89492188 -0.07476562 2.87109375 -0.11328125 C5.5625 0.3125 5.5625 0.3125 7.81640625 1.69140625 C10.50475341 5.72693409 10.60808214 9.80525255 11.0625 14.5625 C11.30813343 16.76567637 11.55425106 18.96879879 11.80078125 21.171875 C11.92533691 22.34169922 12.04989258 23.51152344 12.17822266 24.71679688 C16.40130203 64.23237054 22.82170551 103.47134086 32.04589844 142.13189697 C32.60459898 144.49020208 33.15137423 146.85110068 33.69726562 149.21240234 C36.47404436 161.15207868 39.57641004 172.97576948 42.90185547 184.77392578 C43.69858375 187.60184076 44.48837577 190.43162992 45.27734375 193.26171875 C45.79126877 195.09646567 46.30557726 196.93110522 46.8203125 198.765625 C47.05162872 199.5938678 47.28294495 200.4221106 47.52127075 201.27545166 C48.86196744 206.02080992 50.32946864 210.69564373 51.95687866 215.35093689 C53.37300188 219.93765618 53.27527915 224.60533474 52.5625 229.3125 C49.54964545 233.46816145 44.49775318 234.56227199 39.76953125 236.1953125 C26.70736557 240.7455919 14.50809945 246.64338522 2.26953125 253.03125 C-0.60859489 254.39347998 -2.2986719 254.74844835 -5.4375 254.3125 C-7.69433119 252.05566881 -7.81455009 251.28401961 -8.33203125 248.234375 C-8.47987061 247.4103418 -8.62770996 246.58630859 -8.7800293 245.73730469 C-8.93511963 244.85461914 -9.09020996 243.97193359 -9.25 243.0625 C-12.74777529 224.69305332 -20.62639056 210.26015148 -30.1875 194.4375 C-37.86046377 181.73233169 -43.00076913 170.87870905 -42.75 155.8125 C-42.75322266 154.84441406 -42.75644531 153.87632812 -42.75976562 152.87890625 C-42.67742058 141.72489549 -39.85543045 131.97218392 -36.375 121.4375 C-35.65390902 119.23211025 -34.93381387 117.02639458 -34.21484375 114.8203125 C-33.89765381 113.85754395 -33.58046387 112.89477539 -33.25366211 111.90283203 C-31.05916779 104.93795476 -29.85556096 97.22038737 -32.875 90.3125 C-33.390625 89.3225 -33.90625 88.3325 -34.4375 87.3125 C-34.7675 86.3225 -35.0975 85.3325 -35.4375 84.3125 C-36.0975 84.3125 -36.7575 84.3125 -37.4375 84.3125 C-37.4375 83.6525 -37.4375 82.9925 -37.4375 82.3125 C-38.38625 82.003125 -39.335 81.69375 -40.3125 81.375 C-43.4375 80.3125 -43.4375 80.3125 -45.4375 79.3125 C-64.29345205 77.9399307 -78.09255272 84.27509097 -92.375 96.25 C-114.62590193 117.18476725 -119.9910202 153.58851508 -121.62963867 182.54052734 C-121.98296796 187.33848386 -123.03443196 189.90309477 -126.4375 193.3125 C-133.27044503 197.92473789 -142.39132983 198.46815508 -150.4375 198.3125 C-150.4375 197.6525 -150.4375 196.9925 -150.4375 196.3125 C-151.0975 196.3125 -151.7575 196.3125 -152.4375 196.3125 C-156.56499663 183.35230179 -160.39509978 170.31161737 -164.1875 157.25 C-164.81342946 155.09843267 -165.43948881 152.94690312 -166.06567383 150.79541016 C-167.5891276 145.55960754 -169.11078193 140.32328435 -170.63165283 135.08673096 C-171.74188662 131.26461049 -172.85338282 127.4428575 -173.96484375 123.62109375 C-175.03112992 119.9541497 -176.09625417 116.28689338 -177.15722656 112.6184082 C-178.96261729 106.3761048 -180.7813906 100.13831547 -182.62373352 93.90682983 C-183.64856963 90.43668992 -184.66744445 86.96481277 -185.68569946 83.49273682 C-186.18019231 81.81204323 -186.6773316 80.13212563 -187.17733765 78.45306396 C-187.87517536 76.10871503 -188.56349472 73.76175102 -189.25 71.4140625 C-189.45683914 70.72785828 -189.66367828 70.04165405 -189.87678528 69.33465576 C-192.58800822 59.97046661 -193.3025582 51.48604862 -189.4375 42.3125 C-184.0353409 34.1757769 -177.90297106 29.68472888 -168.4375 27.67578125 C-163.1198074 26.77458575 -157.81613858 26.23729172 -152.4375 25.875 C-146.23756329 25.44465145 -140.15452037 24.59834524 -134.01269531 23.68212891 C-127.59277859 22.73670722 -121.16470946 21.8840519 -114.7265625 21.07421875 C-113.86503571 20.96556488 -113.00350891 20.85691101 -112.11587524 20.7449646 C-108.60648209 20.30310603 -105.0970086 19.86213324 -101.58648682 19.42932129 C-99.09364668 19.12189264 -96.60149314 18.80931362 -94.109375 18.49609375 C-93.36934235 18.4065593 -92.62930969 18.31702484 -91.86685181 18.22477722 C-87.33750908 17.65074916 -82.93732686 16.80426026 -78.48944092 15.776474 C-75.92861546 15.19743373 -73.35871536 14.75637577 -70.765625 14.34765625 C-69.77755859 14.18885986 -68.78949219 14.03006348 -67.77148438 13.86645508 C-66.75376953 13.7042749 -65.73605469 13.54209473 -64.6875 13.375 C-57.04087028 12.13410977 -49.51759217 10.75633751 -41.99609375 8.8984375 C-39.65463857 8.36222639 -37.38579499 8.00768363 -35 7.75 C-31.53714487 7.44524597 -31.53714487 7.44524597 -28.7578125 6.4140625 C-24.8003845 5.10112756 -20.81289187 4.17195044 -16.75 3.25 C-2.85137586 0.07350901 -2.85137586 0.07350901 0 0 Z " fill="#49D0D6" transform="translate(297.4375,64.6875)"/>
<path d="M0 0 C0.86931152 -0.02586182 1.73862305 -0.05172363 2.63427734 -0.07836914 C3.85945068 -0.08211548 3.85945068 -0.08211548 5.109375 -0.0859375 C6.19943848 -0.09826416 6.19943848 -0.09826416 7.31152344 -0.11083984 C9.25 0.375 9.25 0.375 10.99121094 1.83398438 C12.89640757 5.67985065 12.62805708 9.25998435 12.53125 13.4921875 C12.52049438 14.38412811 12.50973877 15.27606873 12.49865723 16.19503784 C12.35534303 24.18745801 11.6973509 32.10373125 10.96688843 40.05926514 C4.80627484 109.3871888 9.01456519 181.21168956 22.23046875 249.46875 C22.37339355 250.21012207 22.51631836 250.95149414 22.66357422 251.71533203 C23.01916527 253.52897695 23.39308632 255.33900607 23.76953125 257.1484375 C25.16791045 266.5391791 25.16791045 266.5391791 23.25 270.375 C17.17383958 272.66789073 17.17383958 272.66789073 14.14770508 271.70849609 C11.7063928 269.99301331 11.19893499 268.58173921 10.19921875 265.7890625 C9.86841309 264.88704102 9.53760742 263.98501953 9.19677734 263.05566406 C8.88434082 262.17104492 8.5719043 261.28642578 8.25 260.375 C7.71485409 258.98697518 7.17969845 257.59895411 6.64453125 256.2109375 C-1.92113 232.56670319 -7.41156464 206.71680356 -10.3125 181.7578125 C-10.54356054 178.51388 -10.54356054 178.51388 -11.75 176.375 C-12.51884142 171.77148614 -13.05133385 167.13152037 -13.625 162.5 C-13.71303894 161.79272766 -13.80107788 161.08545532 -13.89178467 160.35675049 C-18.59366519 122.25992576 -20.63375012 83.86900797 -21.40869141 45.50585938 C-21.42489029 44.77815842 -21.44108917 44.05045746 -21.45777893 43.30070496 C-21.50098495 41.33962597 -21.53889265 39.37843227 -21.57641602 37.41723633 C-21.61942266 34.33061174 -21.61942266 34.33061174 -22.75 31.375 C-29.1046729 30.03998469 -34.74480368 30.79922565 -41.125 31.75 C-42.13433594 31.88921875 -43.14367187 32.0284375 -44.18359375 32.171875 C-48.82232347 32.44999376 -48.82232347 32.44999376 -52.75 34.375 C-54.32866627 34.56480148 -55.91393609 34.70019201 -57.5 34.8125 C-65.34094689 35.46591224 -73.06361569 36.7467437 -80.81640625 38.06640625 C-91.97475047 39.93293793 -103.14928885 41.2443479 -114.40649414 42.37280273 C-115.56012451 42.48954346 -116.71375488 42.60628418 -117.90234375 42.7265625 C-118.93351318 42.82791504 -119.96468262 42.92926758 -121.02709961 43.03369141 C-123.35505388 43.32549452 -125.48407204 43.79660376 -127.75 44.375 C-131.13555086 44.62891631 -134.51579021 44.81463104 -137.90625 44.98046875 C-141.32427219 45.16539905 -144.44422966 45.53543928 -147.75 46.375 C-151.5706692 46.67930109 -155.39188403 46.88282038 -159.21875 47.09375 C-161.93040436 47.30972247 -164.15648836 47.68071923 -166.75 48.375 C-169.08300933 48.41388349 -171.41709801 48.4198635 -173.75 48.375 C-174.625 45.75 -174.625 45.75 -174.75 42.375 C-173.08734473 39.97037805 -171.1279081 38.07264578 -168.75 36.375 C-168.09 36.375 -167.43 36.375 -166.75 36.375 C-166.50378906 35.80007812 -166.25757813 35.22515625 -166.00390625 34.6328125 C-164.55206947 32.01860173 -162.84712451 30.31163792 -160.6875 28.25 C-157.83428067 25.59595 -157.83428067 25.59595 -155.75 22.375 C-155.09 22.375 -154.43 22.375 -153.75 22.375 C-153.75 21.715 -153.75 21.055 -153.75 20.375 C-153.09 20.375 -152.43 20.375 -151.75 20.375 C-151.75 19.715 -151.75 19.055 -151.75 18.375 C-151.09 18.375 -150.43 18.375 -149.75 18.375 C-149.75 17.715 -149.75 17.055 -149.75 16.375 C-146.7585195 14.38067967 -146.06146207 14.11546348 -142.6953125 13.99609375 C-141.52548828 13.94485352 -141.52548828 13.94485352 -140.33203125 13.89257812 C-139.52121094 13.86615234 -138.71039063 13.83972656 -137.875 13.8125 C-136.27330623 13.75208298 -134.67173286 13.68836923 -133.0703125 13.62109375 C-132.36148926 13.59716553 -131.65266602 13.5732373 -130.92236328 13.54858398 C-128.69312551 13.41480414 -128.69312551 13.41480414 -126.31616211 12.87719727 C-123.63169045 12.35184685 -121.10360409 12.18451985 -118.37109375 12.09375 C-117.36755859 12.05636719 -116.36402344 12.01898438 -115.33007812 11.98046875 C-113.23112418 11.9100253 -111.13216582 11.83971328 -109.03320312 11.76953125 C-108.03095703 11.73214844 -107.02871094 11.69476563 -105.99609375 11.65625 C-104.62988892 11.61081055 -104.62988892 11.61081055 -103.23608398 11.56445312 C-100.94504361 11.38986338 -98.96412413 10.9536138 -96.75 10.375 C-94.10213527 10.21941274 -91.46236624 10.09877061 -88.8125 10 C-80.91415853 9.64293946 -73.20918513 8.66570898 -65.39916992 7.46582031 C-58.79226409 6.46915512 -52.25796815 5.89523693 -45.5859375 5.5859375 C-42.67404537 5.48578612 -42.67404537 5.48578612 -39.75 4.375 C-36.65775724 4.06959331 -33.56488281 3.86667689 -30.46484375 3.65625 C-27.78617684 3.54003263 -27.78617684 3.54003263 -25.75 2.375 C-17.22248306 0.72954955 -8.67179949 0.13286801 0 0 Z " fill="#4ACFD5" transform="translate(350.75,14.625)"/>
<path d="M0 0 C5.03687147 1.75663133 9.09692324 5.44876042 13.1953125 8.765625 C13.86820312 9.26449219 14.54109375 9.76335938 15.234375 10.27734375 C17.53619806 12.18098415 19.06546001 13.87602781 19.50463867 16.88476562 C19.46086508 23.33973662 18.44286419 29.1556511 16.8203125 35.390625 C16.59859375 36.28007813 16.376875 37.16953125 16.1484375 38.0859375 C15.18906087 41.923444 14.19915268 45.75116874 13.18359375 49.57421875 C0.30965658 101.33004699 -0.73482262 157.40332011 2.48364258 210.35791016 C2.71037981 214.10806188 2.91357168 217.85859213 3.09130859 221.61138916 C3.16084849 223.05177095 3.23673329 224.49185992 3.31884766 225.93157959 C3.42950734 227.98425777 3.50481194 230.0352892 3.5703125 232.08984375 C3.61929687 233.25990967 3.66828125 234.42997559 3.71875 235.63549805 C3.02987108 239.75495544 1.40579298 241.19457016 -1.8046875 243.765625 C-4.4453125 244.2890625 -4.4453125 244.2890625 -7.0546875 244.140625 C-8.36179687 244.09035156 -8.36179687 244.09035156 -9.6953125 244.0390625 C-11.8046875 243.765625 -11.8046875 243.765625 -12.8046875 242.765625 C-13.08231624 240.95354237 -13.29787524 239.13190577 -13.48828125 237.30859375 C-13.61017822 236.149646 -13.7320752 234.99069824 -13.85766602 233.79663086 C-13.98455811 232.52827393 -14.1114502 231.25991699 -14.2421875 229.953125 C-14.30816132 229.29684113 -14.37413513 228.64055725 -14.44210815 227.96438599 C-20.15786734 170.83526513 -21.83874202 113.05640285 -17.8046875 55.765625 C-17.69253906 54.04641846 -17.69253906 54.04641846 -17.578125 52.29248047 C-16.82789305 40.84623333 -15.64305447 29.49342155 -13.9921875 18.140625 C-13.85119629 17.09044189 -13.71020508 16.04025879 -13.56494141 14.95825195 C-12.59198165 8.7499147 -11.41357976 5.12128142 -6.8046875 0.765625 C-4.38965226 -0.44189262 -2.6432963 -0.42027305 0 0 Z " fill="#4BCED4" transform="translate(396.8046875,33.234375)"/>
<path d="M0 0 C0.86931152 -0.02586182 1.73862305 -0.05172363 2.63427734 -0.07836914 C3.85945068 -0.08211548 3.85945068 -0.08211548 5.109375 -0.0859375 C6.19943848 -0.09826416 6.19943848 -0.09826416 7.31152344 -0.11083984 C9.25 0.375 9.25 0.375 10.99121094 1.83398438 C12.89640757 5.67985065 12.62805708 9.25998435 12.53125 13.4921875 C12.52049438 14.38412811 12.50973877 15.27606873 12.49865723 16.19503784 C12.35534303 24.18745801 11.6973509 32.10373125 10.96688843 40.05926514 C4.80627484 109.3871888 9.01456519 181.21168956 22.23046875 249.46875 C22.37339355 250.21012207 22.51631836 250.95149414 22.66357422 251.71533203 C23.01916527 253.52897695 23.39308632 255.33900607 23.76953125 257.1484375 C25.16791045 266.5391791 25.16791045 266.5391791 23.25 270.375 C17.17110932 272.66892101 17.17110932 272.66892101 14.14672852 271.70385742 C11.72074384 270.0042005 11.21236016 268.63482877 10.21484375 265.86328125 C9.88468262 264.96432129 9.55452148 264.06536133 9.21435547 263.13916016 C8.73699951 261.77090088 8.73699951 261.77090088 8.25 260.375 C7.95625488 259.56724121 7.66250977 258.75948242 7.35986328 257.92724609 C3.81400819 248.05022932 0.75797673 238.08107651 -1.6875 227.875 C-1.89882568 226.99739014 -2.11015137 226.11978027 -2.32788086 225.21557617 C-3.25005416 221.20747318 -4.03017073 217.5181308 -3.75 213.375 C-3.09 213.375 -2.43 213.375 -1.75 213.375 C-1.54503906 214.37402344 -1.34007812 215.37304688 -1.12890625 216.40234375 C-0.85949219 217.69269531 -0.59007812 218.98304688 -0.3125 220.3125 C-0.04566406 221.60027344 0.22117187 222.88804687 0.49609375 224.21484375 C0.92181616 227.22138879 0.92181616 227.22138879 2.25 228.375 C2.59760707 229.76250721 2.90336633 231.16061734 3.1875 232.5625 C3.78142477 235.37582788 4.4469767 237.95498695 5.375 240.6875 C6.25 243.375 6.25 243.375 6.25 247.375 C6.91 247.375 7.57 247.375 8.25 247.375 C9.24 252.655 10.23 257.935 11.25 263.375 C11.91 263.375 12.57 263.375 13.25 263.375 C13.25 265.355 13.25 267.335 13.25 269.375 C16.22 269.375 19.19 269.375 22.25 269.375 C21.93684588 261.67140853 20.76695007 254.29689419 19.25 246.75 C19.07178711 245.86086914 18.89357422 244.97173828 18.70996094 244.05566406 C17.8628317 239.58804624 17.8628317 239.58804624 16.25 235.375 C15.89749884 232.99931992 15.5887896 230.63468253 15.3125 228.25 C15.13675061 226.79296491 14.96096844 225.33593377 14.78515625 223.87890625 C14.69637207 223.13141113 14.60758789 222.38391602 14.51611328 221.61376953 C14.10287357 218.13724831 13.67822937 214.66220201 13.25 211.1875 C13.0334375 209.40279297 13.0334375 209.40279297 12.8125 207.58203125 C12.51837704 205.24071908 12.17305546 202.92255337 11.77734375 200.59570312 C10.24644319 191.4840098 9.68083856 182.46269737 9.25 173.25 C9.11047514 170.30954623 8.96512083 167.36949139 8.8125 164.4296875 C8.75511909 163.30291595 8.75511909 163.30291595 8.69657898 162.15338135 C8.4944128 158.52953743 8.225672 154.94199601 7.75317383 151.34277344 C5.6938622 135.60417077 5.91074822 119.79751674 5.93432617 103.95410156 C5.93894341 100.58222056 5.93207857 97.21070146 5.91381836 93.83886719 C5.80925532 74.36579975 6.3334808 55.42785055 8.90792847 36.09344482 C9.67721787 29.97989668 10.04814398 23.83503869 10.4375 17.6875 C10.51935547 16.47384766 10.60121094 15.26019531 10.68554688 14.00976562 C10.87892721 11.13181125 11.06723415 8.25364411 11.25 5.375 C10.59 5.375 9.93 5.375 9.25 5.375 C8.26 3.89 8.26 3.89 7.25 2.375 C4.31402461 1.99115491 1.56972627 1.771157 -1.375 1.6875 C-2.17679687 1.65333984 -2.97859375 1.61917969 -3.8046875 1.58398438 C-5.78596318 1.50143122 -7.76796037 1.43654084 -9.75 1.375 C-9.75 2.035 -9.75 2.695 -9.75 3.375 C-10.40484375 3.42398437 -11.0596875 3.47296875 -11.734375 3.5234375 C-19.73972182 4.17924275 -27.61732964 5.32796453 -35.48828125 6.93359375 C-39.88129852 7.52809788 -44.19830373 7.48083362 -48.625 7.4375 C-49.50414062 7.43298828 -50.38328125 7.42847656 -51.2890625 7.42382812 C-53.44273803 7.41212337 -55.59637817 7.39419069 -57.75 7.375 C-57.75 7.045 -57.75 6.715 -57.75 6.375 C-56.70199219 6.31441406 -55.65398437 6.25382812 -54.57421875 6.19140625 C-53.19529952 6.10698262 -51.81639395 6.02233553 -50.4375 5.9375 C-49.74720703 5.89818359 -49.05691406 5.85886719 -48.34570312 5.81835938 C-45.27838465 5.62572585 -42.68031848 5.35177283 -39.75 4.375 C-36.65775724 4.06959331 -33.56488281 3.86667689 -30.46484375 3.65625 C-27.78617684 3.54003263 -27.78617684 3.54003263 -25.75 2.375 C-17.22248306 0.72954955 -8.67179949 0.13286801 0 0 Z " fill="#62C5C9" transform="translate(350.75,14.625)"/>
<path d="M0 0 C3.23224956 3.01676626 3.90323614 6.32342584 4.15148926 10.62477112 C4.16401733 11.61943893 4.17654541 12.61410675 4.18945312 13.63891602 C4.20617065 14.77011368 4.22288818 15.90131134 4.2401123 17.06678772 C4.25368774 18.28353683 4.26726318 19.50028595 4.28125 20.75390625 C4.29965942 22.006306 4.31806885 23.25870575 4.33703613 24.54905701 C4.4057906 29.23401311 4.4662555 33.91904904 4.52606201 38.60412598 C4.58510612 43.19580294 4.65120557 47.78734481 4.71875 52.37890625 C4.73232544 53.5976796 4.74590088 54.81645294 4.7598877 56.07215881 C4.77660522 57.20020432 4.79332275 58.32824982 4.81054688 59.49047852 C4.82307495 60.48435074 4.83560303 61.47822296 4.84851074 62.50221252 C4.90001955 65.13041905 4.90001955 65.13041905 6 68 C6.0833804 70.13794525 6.10733747 72.27842009 6.09765625 74.41796875 C6.09282227 76.29838867 6.09282227 76.29838867 6.08789062 78.21679688 C6.07532227 80.18229492 6.07532227 80.18229492 6.0625 82.1875 C6.05748317 83.52278481 6.05292059 84.85807141 6.04882812 86.19335938 C6.03702695 89.46228473 6.02056297 92.73111991 6 96 C6.66 96 7.32 96 8 96 C8.08040527 96.89605957 8.16081055 97.79211914 8.24365234 98.71533203 C8.55016345 102.11144011 8.85997914 105.50721581 9.171875 108.90283203 C9.30498987 110.3590959 9.43687092 111.8154732 9.56738281 113.27197266 C10.65937947 125.44353543 11.99064499 137.53444936 14.49121094 149.51123047 C15.47877126 154.34193582 16.29607333 159.20253365 17.125 164.0625 C17.30675781 165.08666016 17.48851562 166.11082031 17.67578125 167.16601562 C18.70255196 173.20697866 19.19126785 178.87305315 19 185 C17.48658869 182.21020343 16.58683548 179.69423398 15.96484375 176.5859375 C15.79533203 175.74160156 15.62582031 174.89726562 15.45117188 174.02734375 C15.28166016 173.15207031 15.11214844 172.27679688 14.9375 171.375 C14.76412109 170.52292969 14.59074219 169.67085937 14.41210938 168.79296875 C13.37555717 163.54269285 12.66742048 158.35388649 12.24829102 153.01806641 C12.10604302 150.93321502 12.10604302 150.93321502 11 149 C10.23115858 144.39648614 9.69866615 139.75652037 9.125 135.125 C9.03696106 134.41772766 8.94892212 133.71045532 8.85821533 132.98175049 C4.15633481 94.88492576 2.11624988 56.49400797 1.34130859 18.13085938 C1.32510971 17.40315842 1.30891083 16.67545746 1.29222107 15.92570496 C1.24901505 13.96462597 1.21110735 12.00343227 1.17358398 10.04223633 C1.13057734 6.95561174 1.13057734 6.95561174 0 4 C-6.3546729 2.66498469 -11.99480368 3.42422565 -18.375 4.375 C-19.38433594 4.51421875 -20.39367187 4.6534375 -21.43359375 4.796875 C-26.07232347 5.07499376 -26.07232347 5.07499376 -30 7 C-31.57866627 7.18980148 -33.16393609 7.32519201 -34.75 7.4375 C-42.08774582 8.04099607 -49.40963565 9.01880104 -56.61328125 10.55859375 C-58.9129726 10.98390492 -60.97920701 11.10204734 -63.3125 11.0625 C-65.1378125 11.0315625 -65.1378125 11.0315625 -67 11 C-61.28641315 7.1909421 -54.67611905 7.66998202 -47.984375 7.28125 C-45.11860784 7.33115556 -45.11860784 7.33115556 -44 6 C-40.73483319 5.75408786 -37.47056998 5.61576894 -34.19921875 5.4765625 C-31.02620986 5.28133684 -31.02620986 5.28133684 -29.15234375 3.5 C-25.70314748 1.09620442 -21.98356627 1.46586876 -17.875 1.375 C-11.72512071 1.18251552 -6.0699025 -0.53244759 0 0 Z " fill="#64C6C9" transform="translate(328,42)"/>
<path d="M0 0 C0.33 0 0.66 0 1 0 C1 3.3 1 6.6 1 10 C0.34 10 -0.32 10 -1 10 C-0.90460938 10.84304687 -0.80921875 11.68609375 -0.7109375 12.5546875 C-0.60007812 13.65039062 -0.48921875 14.74609375 -0.375 15.875 C-0.25898438 16.96554688 -0.14296875 18.05609375 -0.0234375 19.1796875 C-0.01570313 20.11039063 -0.00796875 21.04109375 0 22 C-0.66 22.66 -1.32 23.32 -2 24 C-2.56140233 26.85507424 -2.56140233 26.85507424 -2.8515625 30.23046875 C-2.98046875 31.50986328 -3.109375 32.78925781 -3.2421875 34.10742188 C-3.3050293 34.7795874 -3.36787109 35.45175293 -3.43261719 36.14428711 C-3.62012949 38.13577245 -3.82545524 40.1255552 -4.03125 42.11523438 C-4.7796546 49.79401833 -5.07563103 57.35620053 -4.97956848 65.07635498 C-4.99856599 68.72461441 -5.20005772 72.29266691 -5.48803711 75.92822266 C-6.06325106 84.15539577 -6.16386139 92.35392587 -6.16796875 100.59765625 C-6.17120021 102.16344734 -6.17456551 103.72923815 -6.17805481 105.29502869 C-6.18399492 108.5633107 -6.18590043 111.8315665 -6.18530273 115.09985352 C-6.18522213 118.38148591 -6.1920669 121.66297674 -6.20581055 124.94458008 C-6.28407294 143.89653128 -5.94890223 162.66398058 -4.44311523 181.56274414 C-3.74202788 190.7032676 -3.81802304 199.84049283 -4 209 C-4.33 209 -4.66 209 -5 209 C-9.56718187 156.51412214 -10.70096489 103.56031024 -7 51 C-6.88785156 49.28079346 -6.88785156 49.28079346 -6.7734375 47.52685547 C-4.21025406 8.42050812 -4.21025406 8.42050812 0 0 Z " fill="#60C5C8" transform="translate(386,38)"/>
<path d="M0 0 C1.22485812 2.44971624 1.16722808 4.14234461 1.1875 6.875 C1.20167969 7.73867187 1.21585938 8.60234375 1.23046875 9.4921875 C0.98452202 12.1684214 0.27201002 13.66404108 -1 16 C-1.3721042 17.32303717 -1.70630173 18.65737935 -2 20 C-2.46666982 22.13334776 -2.93218414 23.87158347 -3.95458984 25.80761719 C-12.62311147 43.9868148 -12.28660262 68.55803358 -5.86328125 87.3203125 C-3.27237903 93.71174953 -0.18017498 99.88323791 3 106 C1.515 106.495 1.515 106.495 0 107 C-1.485 102.05 -1.485 102.05 -3 97 C-3.66 97 -4.32 97 -5 97 C-5.33 95.02 -5.66 93.04 -6 91 C-6.66 91 -7.32 91 -8 91 C-12.70099934 74.56748893 -17.02601433 49.05202865 -9 33 C-8.34 33 -7.68 33 -7 33 C-6.67 29.7 -6.34 26.4 -6 23 C-5.34 23 -4.68 23 -4 23 C-4.061875 22.175 -4.12375 21.35 -4.1875 20.5 C-4.02040613 17.38091443 -3.66614979 15.89529012 -2.5 13.125 C-0.76937268 8.91624436 -0.75785475 5.52004463 -1 1 C-5.95 1 -10.9 1 -16 1 C-16 1.66 -16 2.32 -16 3 C-17.98 3 -19.96 3 -22 3 C-14.53486666 -0.82483236 -8.19331963 -3.45655672 0 0 Z " fill="#E49069" transform="translate(251,159)"/>
<path d="M0 0 C0.99 1.485 0.99 1.485 2 3 C2.47050781 3.56976563 2.94101562 4.13953125 3.42578125 4.7265625 C10.69512754 15.22472513 11.57985039 27.87900633 11.625 40.25 C11.6355542 41.49185059 11.6461084 42.73370117 11.65698242 44.01318359 C11.46961908 56.48811571 7.92606527 67.62812591 3 79 C1.92834431 75.78503292 2.05623912 74.60203926 2.75 71.375 C2.90984375 70.57835937 3.0696875 69.78171875 3.234375 68.9609375 C3.48703125 68.31382812 3.7396875 67.66671875 4 67 C5.485 66.505 5.485 66.505 7 66 C6.67 65.34 6.34 64.68 6 64 C5.76682214 59.18099084 5.66045894 56.24041817 8 52 C8.03874921 50.33378384 8.0450286 48.66605828 8 47 C8.495 46.505 8.495 46.505 9 46 C9.23527773 43.65012738 9.41386417 41.29443961 9.5625 38.9375 C9.64628906 37.64714844 9.73007812 36.35679687 9.81640625 35.02734375 C9.87699219 34.02832031 9.93757813 33.02929688 10 32 C9.360625 32.185625 8.72125 32.37125 8.0625 32.5625 C7.381875 32.706875 6.70125 32.85125 6 33 C5 32 5 32 4.875 29.125 C5 26 5 26 6 23 C5.38339237 17.08782097 3.18524349 11.65706646 0.8046875 6.26171875 C0 4 0 4 0 0 Z " fill="#EE8E61" transform="translate(264,282)"/>
<path d="M0 0 C0.86931152 -0.02586182 1.73862305 -0.05172363 2.63427734 -0.07836914 C3.85945068 -0.08211548 3.85945068 -0.08211548 5.109375 -0.0859375 C6.19943848 -0.09826416 6.19943848 -0.09826416 7.31152344 -0.11083984 C9.25 0.375 9.25 0.375 10.99121094 1.85009766 C12.84688916 5.5722513 12.62598318 9.17212585 12.53125 13.234375 C12.52049438 14.11268982 12.50973877 14.99100464 12.49865723 15.89593506 C12.31515608 26.16316392 11.54865149 36.39082611 10.75 46.625 C10.60478957 48.55724075 10.46025552 50.48953244 10.31640625 52.421875 C9.96868503 57.07353752 9.61198227 61.72442643 9.25 66.375 C8.92 66.375 8.59 66.375 8.25 66.375 C7.57500623 45.97518821 9.57466761 25.68543482 11.25 5.375 C10.59 5.375 9.93 5.375 9.25 5.375 C8.26 3.89 8.26 3.89 7.25 2.375 C4.31402461 1.99115491 1.56972627 1.771157 -1.375 1.6875 C-2.17679687 1.65333984 -2.97859375 1.61917969 -3.8046875 1.58398438 C-5.78596318 1.50143122 -7.76796037 1.43654084 -9.75 1.375 C-9.75 2.035 -9.75 2.695 -9.75 3.375 C-10.40484375 3.42398437 -11.0596875 3.47296875 -11.734375 3.5234375 C-19.73972182 4.17924275 -27.61732964 5.32796453 -35.48828125 6.93359375 C-39.88129852 7.52809788 -44.19830373 7.48083362 -48.625 7.4375 C-49.50414062 7.43298828 -50.38328125 7.42847656 -51.2890625 7.42382812 C-53.44273803 7.41212337 -55.59637817 7.39419069 -57.75 7.375 C-57.75 7.045 -57.75 6.715 -57.75 6.375 C-56.70199219 6.31441406 -55.65398437 6.25382812 -54.57421875 6.19140625 C-53.19529952 6.10698262 -51.81639395 6.02233553 -50.4375 5.9375 C-49.74720703 5.89818359 -49.05691406 5.85886719 -48.34570312 5.81835938 C-45.27838465 5.62572585 -42.68031848 5.35177283 -39.75 4.375 C-36.65775724 4.06959331 -33.56488281 3.86667689 -30.46484375 3.65625 C-27.78617684 3.54003263 -27.78617684 3.54003263 -25.75 2.375 C-17.22248306 0.72954955 -8.67179949 0.13286801 0 0 Z " fill="#67C4C6" transform="translate(350.75,14.625)"/>
<path d="M0 0 C0.66 0.66 1.32 1.32 2 2 C1.01 2.66 0.02 3.32 -1 4 C-1.57748803 5.96361864 -1.57748803 5.96361864 -1.6875 8.125 C-1.790625 9.40375 -1.89375 10.6825 -2 12 C-0.68 12 0.64 12 2 12 C2 12.66 2 13.32 2 14 C2.66 14 3.32 14 4 14 C4 15.32 4 16.64 4 18 C4.66 18 5.32 18 6 18 C5.690625 18.763125 5.38125 19.52625 5.0625 20.3125 C4.32106407 22.18789677 3.63771783 24.08684652 3 26 C3.66 26 4.32 26 5 26 C5 26.66 5 27.32 5 28 C6.65 28 8.3 28 10 28 C10 28.66 10 29.32 10 30 C10.99 30 11.98 30 13 30 C12.67 31.32 12.34 32.64 12 34 C9.03 32.35 6.06 30.7 3 29 C3 28.34 3 27.68 3 27 C2.34 27 1.68 27 1 27 C0.67 25.68 0.34 24.36 0 23 C-0.66 23 -1.32 23 -2 23 C-4.29186474 19.36211946 -4.26795835 16.2381715 -4.25 12 C-4.25515625 10.783125 -4.2603125 9.56625 -4.265625 8.3125 C-4.01844315 5.22999698 -3.72321871 3.52415134 -2 1 C-1.34 0.67 -0.68 0.34 0 0 Z " fill="#FA8959" transform="translate(59,268)"/>
<path d="M0 0 C-3.74546225 2.5916327 -6.19873346 3.36579572 -10.73828125 3.29296875 C-12.33833008 3.2784668 -12.33833008 3.2784668 -13.97070312 3.26367188 C-15.62489258 3.2259668 -15.62489258 3.2259668 -17.3125 3.1875 C-18.43462891 3.17396484 -19.55675781 3.16042969 -20.71289062 3.14648438 C-23.47575229 3.1112138 -26.23762829 3.06192235 -29 3 C-29 3.66 -29 4.32 -29 5 C-30.40076782 5.03758423 -30.40076782 5.03758423 -31.82983398 5.07592773 C-35.28325189 5.17086928 -38.7364896 5.27011258 -42.18969727 5.37231445 C-43.68639269 5.41571813 -45.18313939 5.45738913 -46.67993164 5.49731445 C-48.82714312 5.55488616 -50.97409521 5.61861716 -53.12109375 5.68359375 C-54.4145874 5.72025146 -55.70808105 5.75690918 -57.04077148 5.79467773 C-59.88555008 5.6667278 -59.88555008 5.6667278 -61 7 C-62.85369611 7.08737645 -64.71067541 7.10698153 -66.56640625 7.09765625 C-67.69111328 7.09443359 -68.81582031 7.09121094 -69.97460938 7.08789062 C-71.15861328 7.07951172 -72.34261719 7.07113281 -73.5625 7.0625 C-74.75037109 7.05798828 -75.93824219 7.05347656 -77.16210938 7.04882812 C-80.10812226 7.03699675 -83.05403681 7.02051287 -86 7 C-86 6.67 -86 6.34 -86 6 C-84.75863281 5.93941406 -83.51726562 5.87882812 -82.23828125 5.81640625 C-80.59634423 5.73196377 -78.95441768 5.64731764 -77.3125 5.5625 C-76.08756836 5.50352539 -76.08756836 5.50352539 -74.83789062 5.44335938 C-73.64389648 5.38051758 -73.64389648 5.38051758 -72.42578125 5.31640625 C-71.69786377 5.27974854 -70.96994629 5.24309082 -70.2199707 5.20532227 C-67.95045206 5.03665037 -67.95045206 5.03665037 -65.55957031 4.49780273 C-62.87817039 3.97630575 -60.34991977 3.80939746 -57.62109375 3.71875 C-56.61755859 3.68136719 -55.61402344 3.64398437 -54.58007812 3.60546875 C-52.48112418 3.5350253 -50.38216582 3.46471328 -48.28320312 3.39453125 C-46.77983398 3.33845703 -46.77983398 3.33845703 -45.24609375 3.28125 C-43.87988892 3.23581055 -43.87988892 3.23581055 -42.48608398 3.18945312 C-40.19434257 3.01480996 -38.21497773 2.57805447 -36 2 C-33.24747262 1.82011491 -30.50514298 1.67613217 -27.75 1.5625 C-20.11050716 1.20771995 -12.62913498 0.40064852 -5.0625 -0.6953125 C-2 -1 -2 -1 0 0 Z " fill="#65C4C8" transform="translate(290,23)"/>
<path d="M0 0 C0.66 0 1.32 0 2 0 C1.34 1.65 0.68 3.3 0 5 C-0.66 5 -1.32 5 -2 5 C-2.144375 5.61875 -2.28875 6.2375 -2.4375 6.875 C-3 9 -3 9 -4 11 C-4.66 11 -5.32 11 -6 11 C-6.28875 11.763125 -6.5775 12.52625 -6.875 13.3125 C-8 16 -8 16 -10 19 C-10.66 19 -11.32 19 -12 19 C-12 19.66 -12 20.32 -12 21 C-12.66 21 -13.32 21 -14 21 C-14.3403125 21.804375 -14.3403125 21.804375 -14.6875 22.625 C-16.42057923 25.76104813 -18.59894843 28.36658861 -21 31 C-21.70125 31.78375 -22.4025 32.5675 -23.125 33.375 C-27.57106304 35.88799215 -32.0057985 35.31487085 -37 35 C-38.56516118 31.86967764 -38.540337 28.40926916 -38 25 C-37.01 23.68 -36.02 22.36 -35 21 C-35.33 25.29 -35.66 29.58 -36 34 C-33.03 34 -30.06 34 -27 34 C-27 33.34 -27 32.68 -27 32 C-26.34 32 -25.68 32 -25 32 C-25 31.34 -25 30.68 -25 30 C-24.34 30 -23.68 30 -23 30 C-21.92474806 27.34771188 -20.90543849 24.71631546 -20 22 C-17.39757586 20.35179805 -16.13751221 20 -13 20 C-13 19.34 -13 18.68 -13 18 C-12.34 18 -11.68 18 -11 18 C-11 16.68 -11 15.36 -11 14 C-10.01 14 -9.02 14 -8 14 C-7.67 12.02 -7.34 10.04 -7 8 C-6.01 8 -5.02 8 -4 8 C-4 6.02 -4 4.04 -4 2 C-2.68 2 -1.36 2 0 2 C0 1.34 0 0.68 0 0 Z " fill="#E88F69" transform="translate(217,434)"/>
<path d="M0 0 C1.21816406 0.03480469 1.21816406 0.03480469 2.4609375 0.0703125 C3.68683594 0.09738281 3.68683594 0.09738281 4.9375 0.125 C5.87722656 0.15980469 5.87722656 0.15980469 6.8359375 0.1953125 C6.8359375 0.8553125 6.8359375 1.5153125 6.8359375 2.1953125 C7.8259375 1.8653125 8.8159375 1.5353125 9.8359375 1.1953125 C9.8359375 2.1853125 9.8359375 3.1753125 9.8359375 4.1953125 C10.4959375 4.1953125 11.1559375 4.1953125 11.8359375 4.1953125 C14.43027712 15.0443691 14.43027712 15.0443691 12.8359375 20.1953125 C12.11470703 21.11376953 12.11470703 21.11376953 11.37890625 22.05078125 C9.67941021 24.41286562 9.06189085 26.32838555 8.3359375 29.1328125 C7.28623778 32.892848 6.09764893 35.96429617 3.8359375 39.1953125 C3.5059375 38.5353125 3.1759375 37.8753125 2.8359375 37.1953125 C3.5078125 35.234375 3.5078125 35.234375 4.5859375 32.8203125 C7.71027489 25.33492084 10.39817802 17.39277922 9.8359375 9.1953125 C7.5600552 4.97049504 7.5600552 4.97049504 3.8359375 2.1953125 C0.30698802 2.28274941 0.30698802 2.28274941 -3.1640625 3.1953125 C-4.34736433 5.06176156 -4.34736433 5.06176156 -5.1640625 7.1953125 C-7.7890625 8.9453125 -7.7890625 8.9453125 -10.1640625 10.1953125 C-10.8240625 9.5353125 -11.4840625 8.8753125 -12.1640625 8.1953125 C-11.5040625 7.5353125 -10.8440625 6.8753125 -10.1640625 6.1953125 C-8.8440625 6.1953125 -7.5240625 6.1953125 -6.1640625 6.1953125 C-6.1640625 5.5353125 -6.1640625 4.8753125 -6.1640625 4.1953125 C-5.5040625 4.1953125 -4.8440625 4.1953125 -4.1640625 4.1953125 C-4.1640625 3.5353125 -4.1640625 2.8753125 -4.1640625 2.1953125 C-2.1640625 0.1953125 -2.1640625 0.1953125 0 0 Z " fill="#E7916B" transform="translate(186.1640625,397.8046875)"/>
<path d="M0 0 C0.495 0.99 0.495 0.99 1 2 C0.34 2 -0.32 2 -1 2 C-1.33 3.32 -1.66 4.64 -2 6 C-5.3 6 -8.6 6 -12 6 C-12 6.66 -12 7.32 -12 8 C-19.3109534 8.04648099 -26.62187458 8.08194892 -33.93294621 8.10362434 C-37.32831632 8.11403106 -40.72358483 8.12813284 -44.11889648 8.15087891 C-48.02847041 8.1769042 -51.93800417 8.18649854 -55.84765625 8.1953125 C-57.66367088 8.21079636 -57.66367088 8.21079636 -59.51637268 8.22659302 C-65.40313318 8.22737263 -70.45490301 8.04535167 -76 6 C-76 5.34 -76 4.68 -76 4 C-73.70800823 4.14063135 -71.41640814 4.28765943 -69.125 4.4375 C-67.84882812 4.51871094 -66.57265625 4.59992188 -65.2578125 4.68359375 C-62 5 -62 5 -60 6 C-58.64983345 6.10897278 -57.2946221 6.15893516 -55.94018555 6.17700195 C-55.10138351 6.18983719 -54.26258148 6.20267242 -53.39836121 6.21589661 C-52.4870192 6.22328354 -51.57567719 6.23067047 -50.63671875 6.23828125 C-49.69375443 6.246353 -48.7507901 6.25442474 -47.7792511 6.26274109 C-45.77432091 6.2765967 -43.76936698 6.28731222 -41.7644043 6.29516602 C-38.73764045 6.31221753 -35.71201579 6.35606943 -32.68554688 6.40039062 C-15.560327 6.57157322 -15.560327 6.57157322 0 0 Z " fill="#DF916C" transform="translate(178,270)"/>
<path d="M0 0 C4.21462452 1.62100943 7.51602288 4.25432021 10 8 C11.13913085 14.97539904 9.37434703 21.90279006 7.625 28.625 C7.40328125 29.51445313 7.1815625 30.40390625 6.953125 31.3203125 C6.1386503 34.57821131 5.31105994 37.83208387 4.44677734 41.07714844 C3.07027727 46.33767509 2.18406661 51.62548611 1.375 57 C1.17390625 58.30517578 1.17390625 58.30517578 0.96875 59.63671875 C0.64250622 61.75730331 0.32077895 63.8785819 0 66 C-0.33 66 -0.66 66 -1 66 C-1.60883638 46.92312672 -1.60883638 46.92312672 1.96875 40.171875 C3.54061181 36.86143875 4.0044866 33.33378145 4.625 29.75 C4.7590625 29.00492188 4.893125 28.25984375 5.03125 27.4921875 C5.35966676 25.662437 5.6805798 23.83134246 6 22 C6.66 22 7.32 22 8 22 C8 17.38 8 12.76 8 8 C7.34 8 6.68 8 6 8 C6 7.34 6 6.68 6 6 C5.34 6 4.68 6 4 6 C4 5.34 4 4.68 4 4 C3.34 4 2.68 4 2 4 C2 3.34 2 2.68 2 2 C1.34 2 0.68 2 0 2 C0 1.34 0 0.68 0 0 Z " fill="#61C5C7" transform="translate(406,40)"/>
<path d="M0 0 C0.99 0.33 1.98 0.66 3 1 C2.67 1.66 2.34 2.32 2 3 C1.34 3 0.68 3 0 3 C-0.309375 4.2375 -0.309375 4.2375 -0.625 5.5 C-2.11565274 9.2943888 -4.030444 11.91790278 -6.5625 15.0703125 C-7.97973014 16.97278991 -9.00666826 18.850965 -10 21 C-10.66 21 -11.32 21 -12 21 C-12.268125 21.53625 -12.53625 22.0725 -12.8125 22.625 C-14.20833333 25.41666667 -15.60416667 28.20833333 -17 31 C-17.66 31 -18.32 31 -19 31 C-19.103125 31.598125 -19.20625 32.19625 -19.3125 32.8125 C-20.09423531 35.29983964 -21.1264074 36.24696028 -23 38 C-22.71640113 36.5608866 -22.42278601 35.12374482 -22.125 33.6875 C-21.96257812 32.88699219 -21.80015625 32.08648437 -21.6328125 31.26171875 C-21 29 -21 29 -19 26 C-18.01 26 -17.02 26 -16 26 C-15.34 24.02 -14.68 22.04 -14 20 C-13.01 20 -12.02 20 -11 20 C-11.061875 18.948125 -11.12375 17.89625 -11.1875 16.8125 C-10.99046251 12.80607096 -10.6347734 10.99819042 -8 8 C-5.3125 7.6875 -5.3125 7.6875 -3 8 C-2.690625 7.05125 -2.38125 6.1025 -2.0625 5.125 C-1 2 -1 2 0 0 Z " fill="#EA8E66" transform="translate(242,396)"/>
<path d="M0 0 C0 0.66 0 1.32 0 2 C-2.31 2 -4.62 2 -7 2 C-7 2.66 -7 3.32 -7 4 C-7.85464844 4.20496094 -8.70929688 4.40992188 -9.58984375 4.62109375 C-10.69457031 4.89050781 -11.79929688 5.15992188 -12.9375 5.4375 C-14.03964844 5.70433594 -15.14179687 5.97117187 -16.27734375 6.24609375 C-18.89421254 6.72995725 -18.89421254 6.72995725 -20 8 C-22.33297433 8.04092937 -24.66705225 8.04241723 -27 8 C-27 8.66 -27 9.32 -27 10 C-28.03125 10.103125 -29.0625 10.20625 -30.125 10.3125 C-33.96066744 10.78205944 -33.96066744 10.78205944 -36.875 12.5625 C-41.00875448 14.46402706 -44.52581424 14.26845115 -49 14 C-49 13.67 -49 13.34 -49 13 C-42.26180204 10.79497509 -35.57936487 8.8403118 -28.625 7.4375 C-23.68232566 6.42923827 -19.53292355 5.17202587 -15 3 C-10.11320795 1.16745298 -5.25032341 0 0 0 Z " fill="#E78E66" transform="translate(89,348)"/>
<path d="M0 0 C0.33 0.66 0.66 1.32 1 2 C-0.01620005 5.04860014 -0.77391571 5.86666922 -3 8 C-3.33 8.66 -3.66 9.32 -4 10 C-4.66 10 -5.32 10 -6 10 C-6 14.62 -6 19.24 -6 24 C-5.01 24 -4.02 24 -3 24 C-2.67 25.32 -2.34 26.64 -2 28 C0.97 28 3.94 28 7 28 C7.66 26.68 8.32 25.36 9 24 C10.65 24 12.3 24 14 24 C13.01 24.33 12.02 24.66 11 25 C11 25.66 11 26.32 11 27 C7.64802157 29.23465229 6.42208754 29.27108649 2.5 29.25 C1.06140625 29.25773437 1.06140625 29.25773437 -0.40625 29.265625 C-3 29 -3 29 -6 27 C-6 26.34 -6 25.68 -6 25 C-6.66 25 -7.32 25 -8 25 C-9.60140495 21.7971901 -9.35973947 18.48379279 -9 15 C-7.47634567 10.71925688 -5.60303465 6.73478885 -3 3 C-2.34 3 -1.68 3 -1 3 C-0.67 2.01 -0.34 1.02 0 0 Z " fill="#E48E68" transform="translate(102,446)"/>
<path d="M0 0 C0.33 0.66 0.66 1.32 1 2 C0.67 2.66 0.34 3.32 0 4 C-0.66 4 -1.32 4 -2 4 C-2.02712153 5.916588 -2.04645097 7.8332873 -2.0625 9.75 C-2.07410156 10.81734375 -2.08570313 11.8846875 -2.09765625 12.984375 C-2.01510087 15.53368501 -1.74617558 17.57933591 -1 20 C2.02769315 20.86111516 4.84266637 21.18230893 7.984375 21.31640625 C8.91894531 21.35830078 9.85351562 21.40019531 10.81640625 21.44335938 C11.78449219 21.48267578 12.75257812 21.52199219 13.75 21.5625 C14.73355469 21.60568359 15.71710937 21.64886719 16.73046875 21.69335938 C19.15351275 21.79922052 21.5766554 21.90130171 24 22 C24 22.33 24 22.66 24 23 C3.99146133 25.3839961 3.99146133 25.3839961 -2 21 C-5.67924448 15.97169921 -5.31820022 10.9633079 -5 5 C-4.34 5 -3.68 5 -3 5 C-2.87625 4.360625 -2.7525 3.72125 -2.625 3.0625 C-2.41875 2.381875 -2.2125 1.70125 -2 1 C-1.34 0.67 -0.68 0.34 0 0 Z " fill="#E58F64" transform="translate(14,372)"/>
<path d="M0 0 C0.66 0.66 1.32 1.32 2 2 C1.01966797 2.804375 1.01966797 2.804375 0.01953125 3.625 C-2.53568782 6.62997716 -2.45336582 8.11404644 -2.3125 12 C-2.27576172 13.546875 -2.27576172 13.546875 -2.23828125 15.125 C-2.03727466 17.55025981 -1.68754659 19.67463917 -1 22 C-0.34 22 0.32 22 1 22 C1.33 23.32 1.66 24.64 2 26 C2.99 26 3.98 26 5 26 C5 26.66 5 27.32 5 28 C6.65 28 8.3 28 10 28 C10 28.66 10 29.32 10 30 C10.99 30 11.98 30 13 30 C12.67 31.32 12.34 32.64 12 34 C9.03 32.35 6.06 30.7 3 29 C3 28.34 3 27.68 3 27 C2.34 27 1.68 27 1 27 C0.67 25.68 0.34 24.36 0 23 C-0.66 23 -1.32 23 -2 23 C-4.29186474 19.36211946 -4.26795835 16.2381715 -4.25 12 C-4.25515625 10.783125 -4.2603125 9.56625 -4.265625 8.3125 C-4.01844315 5.22999698 -3.72321871 3.52415134 -2 1 C-1.34 0.67 -0.68 0.34 0 0 Z " fill="#E0906A" transform="translate(59,268)"/>
<path d="M0 0 C13.53 0 27.06 0 41 0 C41 0.66 41 1.32 41 2 C42.32 2 43.64 2 45 2 C44.67 2.66 44.34 3.32 44 4 C43.06655762 3.91697632 43.06655762 3.91697632 42.11425781 3.83227539 C28.083361 2.59523944 14.07316223 1.59157098 0 1 C0 0.67 0 0.34 0 0 Z " fill="#E89065" transform="translate(92,308)"/>
<path d="M0 0 C0.33 0 0.66 0 1 0 C0.76636839 4.10595131 0.52751796 8.21142902 0.27734375 12.31640625 C0.10221499 15.19924968 -0.04998522 18.07946804 -0.18359375 20.96484375 C-0.53593665 27.58745205 -1.21910196 32.95456949 -4 39 C-4.66 39 -5.32 39 -6 39 C-6.33 40.98 -6.66 42.96 -7 45 C-8.98 45 -10.96 45 -13 45 C-12.01 44.505 -12.01 44.505 -11 44 C-11 43.34 -11 42.68 -11 42 C-9.125 39.875 -9.125 39.875 -7 38 C-6.34 38 -5.68 38 -5 38 C-3.1478084 29.85178356 -2.21331178 21.68113 -1.375 13.375 C-1.17390625 11.43947266 -1.17390625 11.43947266 -0.96875 9.46484375 C-0.64161272 6.31030571 -0.31879724 3.1553899 0 0 Z " fill="#E4906A" transform="translate(192,225)"/>
<path d="M0 0 C0.9583374 0.00523682 1.9166748 0.01047363 2.90405273 0.01586914 C4.45576172 0.02070313 4.45576172 0.02070313 6.03881836 0.02563477 C7.12743164 0.03401367 8.21604492 0.04239258 9.33764648 0.05102539 C10.97636719 0.05779297 10.97636719 0.05779297 12.64819336 0.06469727 C15.35723144 0.07652713 18.06616248 0.09300996 20.77514648 0.11352539 C20.44514648 0.77352539 20.11514648 1.43352539 19.77514648 2.11352539 C18.63625977 2.09612305 18.63625977 2.09612305 17.47436523 2.07836914 C16.48049805 2.0693457 15.48663086 2.06032227 14.46264648 2.05102539 C13.47651367 2.03942383 12.49038086 2.02782227 11.47436523 2.01586914 C8.675508 1.99022677 8.675508 1.99022677 5.77514648 3.11352539 C3.88043832 3.18207489 1.98346309 3.19832912 0.08764648 3.17602539 C-0.9062207 3.16700195 -1.90008789 3.15797852 -2.92407227 3.14868164 C-4.06295898 3.1312793 -4.06295898 3.1312793 -5.22485352 3.11352539 C-5.22485352 3.77352539 -5.22485352 4.43352539 -5.22485352 5.11352539 C-9.67985352 5.60852539 -9.67985352 5.60852539 -14.22485352 6.11352539 C-14.22485352 5.45352539 -14.22485352 4.79352539 -14.22485352 4.11352539 C-12.90485352 4.11352539 -11.58485352 4.11352539 -10.22485352 4.11352539 C-10.22485352 3.45352539 -10.22485352 2.79352539 -10.22485352 2.11352539 C-8.52329102 1.89696289 -8.52329102 1.89696289 -6.78735352 1.67602539 C-3.67022875 1.1838478 -2.8269134 0.1442461 0 0 Z " fill="#EB8B61" transform="translate(131.224853515625,365.886474609375)"/>
<path d="M0 0 C1.14229879 3.42689636 0.90861076 5.61102218 0.5625 9.1875 C0.46066406 10.27417969 0.35882813 11.36085937 0.25390625 12.48046875 C0.12822266 13.72763672 0.12822266 13.72763672 0 15 C-0.66 15 -1.32 15 -2 15 C-2.53910966 17.6144433 -3.03645001 20.22421351 -3.46484375 22.859375 C-3.62082031 23.81328125 -3.77679688 24.7671875 -3.9375 25.75 C-4.09089844 26.71421875 -4.24429688 27.6784375 -4.40234375 28.671875 C-4.59957031 29.44015625 -4.79679688 30.2084375 -5 31 C-5.66 31.33 -6.32 31.66 -7 32 C-5.99947737 20.77025346 -3.70837412 10.64388298 0 0 Z " fill="#E98E69" transform="translate(200,193)"/>
<path d="M0 0 C0 0.33 0 0.66 0 1 C-0.76183594 1.18175781 -1.52367187 1.36351562 -2.30859375 1.55078125 C-7.09698085 2.71649346 -11.84293606 3.87903299 -16.5 5.5 C-21.90037298 7.37968783 -27.44250321 8.67409975 -33 10 C-33.33 9.34 -33.66 8.68 -34 8 C-32.35 7.67 -30.7 7.34 -29 7 C-29 6.67 -29 6.34 -29 6 C-26.69 6 -24.38 6 -22 6 C-22 5.34 -22 4.68 -22 4 C-19.69 4 -17.38 4 -15 4 C-15 3.34 -15 2.68 -15 2 C-9.87080814 -0.10428384 -5.4389165 -0.21755666 0 0 Z " fill="#E58E69" transform="translate(74,384)"/>
<path d="M0 0 C-0.99 0.495 -0.99 0.495 -2 1 C-2 1.66 -2 2.32 -2 3 C-2.66 3 -3.32 3 -4 3 C-4 3.66 -4 4.32 -4 5 C-4.66 5 -5.32 5 -6 5 C-6 5.66 -6 6.32 -6 7 C-6.66 7 -7.32 7 -8 7 C-8.185625 7.556875 -8.37125 8.11375 -8.5625 8.6875 C-10.66360714 12.06754192 -13.70665994 13.85140381 -17 16 C-16.34 14.02 -15.68 12.04 -15 10 C-13.68 10 -12.36 10 -11 10 C-11.103125 9.278125 -11.20625 8.55625 -11.3125 7.8125 C-11 5 -11 5 -8.875 2.1875 C-5.56195324 -0.33329645 -4.05780213 -0.47183746 0 0 Z " fill="#E6906A" transform="translate(134,454)"/>
<path d="M0 0 C0.33 0.66 0.66 1.32 1 2 C-1.48387097 8.74193548 -1.48387097 8.74193548 -4 10 C-4.72693904 11.97888961 -5.39816251 13.97954558 -6 16 C-6.99 16 -7.98 16 -9 16 C-9.33 16.99 -9.66 17.98 -10 19 C-10.33 18.34 -10.66 17.68 -11 17 C-9.78515625 14.1796875 -9.78515625 14.1796875 -8.0625 10.875 C-7.49660156 9.77929688 -6.93070313 8.68359375 -6.34765625 7.5546875 C-5.90292969 6.71164063 -5.45820313 5.86859375 -5 5 C-4.34 5 -3.68 5 -3 5 C-2.690625 4.360625 -2.38125 3.72125 -2.0625 3.0625 C-1 1 -1 1 0 0 Z " fill="#E98E65" transform="translate(212,174)"/>
<path d="M0 0 C0.33 1.32 0.66 2.64 1 4 C9.25 4 17.5 4 26 4 C26 4.33 26 4.66 26 5 C24.96359375 5.06058594 23.9271875 5.12117188 22.859375 5.18359375 C21.48957127 5.26803371 20.11978025 5.35267997 18.75 5.4375 C17.72712891 5.49647461 17.72712891 5.49647461 16.68359375 5.55664062 C13.33662961 5.76785681 10.23454184 6.13360486 7 7 C4.66699067 7.03888349 2.33290199 7.0448635 0 7 C-0.38133299 5.0085944 -0.71325582 3.00720923 -1 1 C-0.67 0.67 -0.34 0.34 0 0 Z " fill="#66C5C7" transform="translate(177,56)"/>
<path d="M0 0 C0.99 0 1.98 0 3 0 C5.42857143 6.28571429 5.42857143 6.28571429 4 10 C3.34 10 2.68 10 2 10 C1.855625 10.94875 1.71125 11.8975 1.5625 12.875 C1 16 1 16 0 18 C-0.66 18 -1.32 18 -2 18 C-2.66 19.98 -3.32 21.96 -4 24 C-4.66 24 -5.32 24 -6 24 C-6 24.66 -6 25.32 -6 26 C-6.66 25.67 -7.32 25.34 -8 25 C-7.67 24.34 -7.34 23.68 -7 23 C-6.34 23 -5.68 23 -5 23 C-4.5978125 21.63875 -4.5978125 21.63875 -4.1875 20.25 C-3 17 -3 17 -1.47265625 15.11328125 C0.27351542 12.60750175 0.51292433 10.96021485 0.75 7.9375 C0.82734375 7.08027344 0.9046875 6.22304688 0.984375 5.33984375 C1.12684277 2.8429355 1.12684277 2.8429355 0 0 Z " fill="#E7906B" transform="translate(152,368)"/>
<path d="M0 0 C0.33 0.66 0.66 1.32 1 2 C0.67 2.66 0.34 3.32 0 4 C-2.97 4 -5.94 4 -9 4 C-9.33 5.32 -9.66 6.64 -10 8 C-13.96 8 -17.92 8 -22 8 C-18.96474514 5.97649676 -17.80573798 5.67875982 -14.3125 5.375 C-13.50425781 5.30023438 -12.69601563 5.22546875 -11.86328125 5.1484375 C-10.94095703 5.07496094 -10.94095703 5.07496094 -10 5 C-10 4.34 -10 3.68 -10 3 C-5.05 1.515 -5.05 1.515 0 0 Z " fill="#EA8D64" transform="translate(111,340)"/>
<path d="M0 0 C0.33 1.32 0.66 2.64 1 4 C-0.2375 4.433125 -1.475 4.86625 -2.75 5.3125 C-5.28752686 6.24248367 -6.88395047 6.8989246 -8.9375 8.6875 C-12.33230877 10.84783285 -16.08388925 10.22592947 -20 10 C-7.58108371 3.72013983 -7.58108371 3.72013983 -2 3 C-2 2.34 -2 1.68 -2 1 C-1.34 0.67 -0.68 0.34 0 0 Z " fill="#E69066" transform="translate(132,330)"/>
<path d="M0 0 C8.15484303 0.44651878 16.04264468 1.11150323 24 3 C24 3.33 24 3.66 24 4 C21.31222198 4.0544207 18.62556788 4.09387266 15.9375 4.125 C15.18533203 4.14175781 14.43316406 4.15851563 13.65820312 4.17578125 C8.70672291 4.21865121 4.69585549 3.58399375 0 2 C0 1.34 0 0.68 0 0 Z " fill="#E98F63" transform="translate(102,274)"/>
<path d="M0 0 C0.99 1.485 0.99 1.485 2 3 C2.47953125 3.57621094 2.9590625 4.15242188 3.453125 4.74609375 C5.47630829 7.69401485 6.54761075 10.69934655 7.75 14.0625 C8.19859375 15.29097656 8.6471875 16.51945312 9.109375 17.78515625 C10 21 10 21 9 24 C7 22 7 22 6.875 18.875 C6.91625 17.92625 6.9575 16.9775 7 16 C6.34 16 5.68 16 5 16 C4.15787744 14.08717875 3.32661136 12.16957527 2.5 10.25 C2.0359375 9.18265625 1.571875 8.1153125 1.09375 7.015625 C0 4 0 4 0 0 Z " fill="#E5906B" transform="translate(264,282)"/>
<path d="M0 0 C0.33 0 0.66 0 1 0 C0.67 4.29 0.34 8.58 0 13 C2.97 13 5.94 13 9 13 C9 12.34 9 11.68 9 11 C9.66 11 10.32 11 11 11 C11 10.34 11 9.68 11 9 C12.32 9.33 13.64 9.66 15 10 C12.59384348 12.65506927 10.82040233 13.92164697 7.21875 14.265625 C4.46966145 14.25145444 1.74344679 14.17296687 -1 14 C-2.58493084 10.83013832 -2.2940042 7.45967739 -2 4 C-1 1.5 -1 1.5 0 0 Z " fill="#E19169" transform="translate(181,455)"/>
<path d="M0 0 C1.32 0.33 2.64 0.66 4 1 C2.88200014 2.33920838 1.75538103 3.67122556 0.625 5 C-0.00148437 5.7425 -0.62796875 6.485 -1.2734375 7.25 C-2.12808594 8.11625 -2.12808594 8.11625 -3 9 C-3.66 9 -4.32 9 -5 9 C-5.33 9.99 -5.66 10.98 -6 12 C-6.33 10.68 -6.66 9.36 -7 8 C-6.34 8 -5.68 8 -5 8 C-5.33 7.01 -5.66 6.02 -6 5 C-2.25 2 -2.25 2 0 2 C0 1.34 0 0.68 0 0 Z " fill="#EA8D64" transform="translate(152,430)"/>
<path d="M0 0 C0.8125 1.625 0.8125 1.625 1 4 C-1.25 7.25 -1.25 7.25 -4 10 C-4.99 10 -5.98 10 -7 10 C-6.690625 9.236875 -6.38125 8.47375 -6.0625 7.6875 C-5.32106407 5.81210323 -4.63771783 3.91315348 -4 2 C-1.9375 0.8125 -1.9375 0.8125 0 0 Z " fill="#EF8D5B" transform="translate(201,454)"/>
<path d="M0 0 C0.99 0 1.98 0 3 0 C3 0.66 3 1.32 3 2 C3.66 2 4.32 2 5 2 C6.625 4.5 6.625 4.5 8 7 C7.34 7 6.68 7 6 7 C5.01 9.31 4.02 11.62 3 14 C2.34 14 1.68 14 1 14 C0.67 15.32 0.34 16.64 0 18 C-0.99 17.67 -1.98 17.34 -3 17 C-2.34 17 -1.68 17 -1 17 C-0.67 15.68 -0.34 14.36 0 13 C0.66 13 1.32 13 2 13 C3.15879348 6.91848964 3.15879348 6.91848964 2 1 C1.34 0.67 0.68 0.34 0 0 Z " fill="#E78F68" transform="translate(137,312)"/>
<path d="M0 0 C0.66 0.33 1.32 0.66 2 1 C1.67 1.66 1.34 2.32 1 3 C0.34 3 -0.32 3 -1 3 C-1 3.66 -1 4.32 -1 5 C-1.66 5 -2.32 5 -3 5 C-3 5.66 -3 6.32 -3 7 C-3.66 7 -4.32 7 -5 7 C-5 7.66 -5 8.32 -5 9 C-5.66 9 -6.32 9 -7 9 C-7 9.99 -7 10.98 -7 12 C-9.5 14.1875 -9.5 14.1875 -12 16 C-10.125 10.25 -10.125 10.25 -9 8 C-8.34 8 -7.68 8 -7 8 C-7 7.34 -7 6.68 -7 6 C-6.01 6 -5.02 6 -4 6 C-4 5.34 -4 4.68 -4 4 C-3.34 4 -2.68 4 -2 4 C-2 3.34 -2 2.68 -2 2 C-1.34 2 -0.68 2 0 2 C0 1.34 0 0.68 0 0 Z " fill="#E49068" transform="translate(168,414)"/>
<path d="M0 0 C1 3 1 3 0.25 5.5 C-0.95564967 7.91129934 -1.86392494 9.37658295 -4 11 C-4.99 11 -5.98 11 -7 11 C-5.50079488 7.88626628 -3.91847864 4.87771795 -2 2 C-1.34 2 -0.68 2 0 2 C0 1.34 0 0.68 0 0 Z " fill="#EB8D63" transform="translate(143,395)"/>
<path d="M0 0 C5.28 0 10.56 0 16 0 C16 0.33 16 0.66 16 1 C12.37 1 8.74 1 5 1 C5 1.66 5 2.32 5 3 C0.545 3.495 0.545 3.495 -4 4 C-4 3.34 -4 2.68 -4 2 C-2.68 2 -1.36 2 0 2 C0 1.34 0 0.68 0 0 Z " fill="#E48F68" transform="translate(121,368)"/>
<path d="M0 0 C0.33 0.66 0.66 1.32 1 2 C0.0625 4.125 0.0625 4.125 -1 6 C-1.66 6 -2.32 6 -3 6 C-3 6.66 -3 7.32 -3 8 C-3.66 8 -4.32 8 -5 8 C-5.66 9.98 -6.32 11.96 -7 14 C-8.32 13.67 -9.64 13.34 -11 13 C-10.360625 12.7525 -9.72125 12.505 -9.0625 12.25 C-6.81258459 11.18437567 -6.81258459 11.18437567 -6.25 8.875 C-6.1675 8.25625 -6.085 7.6375 -6 7 C-5.34 7 -4.68 7 -4 7 C-3.71125 6.21625 -3.4225 5.4325 -3.125 4.625 C-2 2 -2 2 0 0 Z " fill="#E4916A" transform="translate(125,418)"/>
<path d="M0 0 C0.66 0 1.32 0 2 0 C4.48063781 10.37357631 4.48063781 10.37357631 3 16 C0.14206684 13.14206684 0.59200059 10.85334416 0.375 6.875 C0.30023438 5.59367187 0.22546875 4.31234375 0.1484375 2.9921875 C0.09945312 2.00476563 0.05046875 1.01734375 0 0 Z " fill="#EF8B5F" transform="translate(196,402)"/>
<path d="M0 0 C0 3.63563409 -0.82542733 5.12645755 -3 8 C-4.32 8 -5.64 8 -7 8 C-7.66 9.32 -8.32 10.64 -9 12 C-9.66 11.67 -10.32 11.34 -11 11 C-9.625 9 -9.625 9 -8 7 C-7.34 7 -6.68 7 -6 7 C-6 6.34 -6 5.68 -6 5 C-5.34 5 -4.68 5 -4 5 C-4 4.34 -4 3.68 -4 3 C-3.34 3 -2.68 3 -2 3 C-2 2.34 -2 1.68 -2 1 C-1.34 0.67 -0.68 0.34 0 0 Z " fill="#67C5C7" transform="translate(203,30)"/>
<path d="M0 0 C0 0.66 0 1.32 0 2 C-1.98 2.99 -1.98 2.99 -4 4 C-4 4.66 -4 5.32 -4 6 C-4.99 6 -5.98 6 -7 6 C-7 6.66 -7 7.32 -7 8 C-8.65 8 -10.3 8 -12 8 C-11.34 7.67 -10.68 7.34 -10 7 C-10 6.34 -10 5.68 -10 5 C-8.36935236 3.94228261 -6.69719127 2.94726954 -5 2 C-2 0 -2 0 0 0 Z " fill="#E88F68" transform="translate(229,162)"/>
<path d="M0 0 C0.886875 0.103125 1.77375 0.20625 2.6875 0.3125 C1.6975 0.8075 1.6975 0.8075 0.6875 1.3125 C0.6875 1.9725 0.6875 2.6325 0.6875 3.3125 C-0.9625 3.6425 -2.6125 3.9725 -4.3125 4.3125 C-4.3125 4.9725 -4.3125 5.6325 -4.3125 6.3125 C-4.9725 6.3125 -5.6325 6.3125 -6.3125 6.3125 C-6.6425 6.9725 -6.9725 7.6325 -7.3125 8.3125 C-7.6425 7.3225 -7.9725 6.3325 -8.3125 5.3125 C-4.12788462 0.38942308 -4.12788462 0.38942308 0 0 Z " fill="#F28C62" transform="translate(131.3125,453.6875)"/>
<path d="M0 0 C1.65 0 3.3 0 5 0 C5 0.66 5 1.32 5 2 C5.99 2 6.98 2 8 2 C7.67 3.32 7.34 4.64 7 6 C3.535 4.02 3.535 4.02 0 2 C0 1.34 0 0.68 0 0 Z " fill="#EC8D61" transform="translate(64,296)"/>
<path d="M0 0 C6.33333333 0.33333333 6.33333333 0.33333333 9 3 C5.04 3 1.08 3 -3 3 C-2.01 2.01 -1.02 1.02 0 0 Z " fill="#58C6C8" transform="translate(392,33)"/>
<path d="M0 0 C3.3 0 6.6 0 10 0 C10 0.33 10 0.66 10 1 C8.2984375 1.2165625 8.2984375 1.2165625 6.5625 1.4375 C3.19222799 1.61171478 3.19222799 1.61171478 2 3 C-0.67058851 3.14115161 -3.32432238 3.04247107 -6 3 C-6 2.67 -6 2.34 -6 2 C-4.02 2 -2.04 2 0 2 C0 1.34 0 0.68 0 0 Z " fill="#E78C6A" transform="translate(93,376)"/>
<path d="M0 0 C-2.88628401 1.57554035 -5.53342384 2.46276373 -8.75 3.125 C-9.94882813 3.37636719 -9.94882813 3.37636719 -11.171875 3.6328125 C-11.77515625 3.75398438 -12.3784375 3.87515625 -13 4 C-13 3.34 -13 2.68 -13 2 C-8.50343896 -0.24828052 -4.92127034 -0.16682272 0 0 Z " fill="#E59069" transform="translate(117,372)"/>
<path d="M0 0 C2.74277578 3.19990508 4.6302836 6.00499382 6 10 C5.34 10 4.68 10 4 10 C3.896875 9.360625 3.79375 8.72125 3.6875 8.0625 C3.460625 7.381875 3.23375 6.70125 3 6 C2.01 5.67 1.02 5.34 0 5 C0 3.35 0 1.7 0 0 Z " fill="#E58F69" transform="translate(258,272)"/>
<path d="M0 0 C0.66 0.33 1.32 0.66 2 1 C1.19152271 2.16945792 0.37810888 3.33550461 -0.4375 4.5 C-0.88996094 5.1496875 -1.34242188 5.799375 -1.80859375 6.46875 C-2.20175781 6.9740625 -2.59492188 7.479375 -3 8 C-3.33 8 -3.66 8 -4 8 C-4 6.35 -4 4.7 -4 3 C-2.68 2.67 -1.36 2.34 0 2 C0 1.34 0 0.68 0 0 Z " fill="#E88C65" transform="translate(250,386)"/>
<path d="M0 0 C0.6875 1.625 0.6875 1.625 1 4 C-0.4375 7.25 -0.4375 7.25 -2 10 C-2.66 9.67 -3.32 9.34 -4 9 C-1.125 2.25 -1.125 2.25 0 0 Z " fill="#F18A5B" transform="translate(192,432)"/>
<path d="M0 0 C2.125 0.375 2.125 0.375 4 1 C3.360625 1.268125 2.72125 1.53625 2.0625 1.8125 C-0.33131686 2.88667752 -0.33131686 2.88667752 -1 6 C-1.625 4.125 -1.625 4.125 -2 2 C-1.34 1.34 -0.68 0.68 0 0 Z " fill="#EA9269" transform="translate(136,448)"/>
</svg>
